<?xml version="1.0" encoding="UTF-8" standalone="no"?>
<!-- Created with Inkscape (http://www.inkscape.org/) -->
<svg
   xmlns:dc="http://purl.org/dc/elements/1.1/"
   xmlns:cc="http://creativecommons.org/ns#"
   xmlns:rdf="http://www.w3.org/1999/02/22-rdf-syntax-ns#"
   xmlns:svg="http://www.w3.org/2000/svg"
   xmlns="http://www.w3.org/2000/svg"
   xmlns:xlink="http://www.w3.org/1999/xlink"
   xmlns:sodipodi="http://sodipodi.sourceforge.net/DTD/sodipodi-0.dtd"
   xmlns:inkscape="http://www.inkscape.org/namespaces/inkscape"
   width="48"
   height="48"
   id="svg2"
   sodipodi:version="0.32"
   inkscape:version="0.46"
   sodipodi:docname="feemeak-icon.svg"
   inkscape:output_extension="org.inkscape.output.svg.inkscape"
   inkscape:export-filename="C:\Documents and Settings\dhazard\Mes documents\wp-dotclear\FeeMeakPlugin\icon\feemeak-icon.png"
   inkscape:export-xdpi="120"
   inkscape:export-ydpi="120"
   version="1.0">
  <defs
     id="defs4">
    <linearGradient
       id="linearGradient3202">
      <stop
         style="stop-color:#313131;stop-opacity:1;"
         offset="0"
         id="stop3204" />
      <stop
         style="stop-color:#000000;stop-opacity:1;"
         offset="1"
         id="stop3206" />
    </linearGradient>
    <linearGradient
       id="linearGradient3188">
      <stop
         style="stop-color:#ffffff;stop-opacity:0.23529412;"
         offset="0"
         id="stop3190" />
      <stop
         style="stop-color:#ffffff;stop-opacity:0.15686275;"
         offset="1"
         id="stop3192" />
    </linearGradient>
    <linearGradient
       id="linearGradient3161">
      <stop
         style="stop-color:#ff9500;stop-opacity:1;"
         offset="0"
         id="stop3163" />
      <stop
         style="stop-color:#c76200;stop-opacity:1;"
         offset="1"
         id="stop3165" />
    </linearGradient>
    <inkscape:perspective
       sodipodi:type="inkscape:persp3d"
       inkscape:vp_x="0 : 526.18109 : 1"
       inkscape:vp_y="0 : 1000 : 0"
       inkscape:vp_z="744.09448 : 526.18109 : 1"
       inkscape:persp3d-origin="372.04724 : 350.78739 : 1"
       id="perspective10" />
    <radialGradient
       inkscape:collect="always"
       xlink:href="#linearGradient3161"
       id="radialGradient3169"
       cx="294.35413"
       cy="454.09509"
       fx="294.35413"
       fy="454.09509"
       r="134.28571"
       gradientTransform="matrix(-2.4420395e-2,0.2177874,-0.2727172,-3.194314e-2,144.87753,-36.309595)"
       gradientUnits="userSpaceOnUse" />
    <linearGradient
       inkscape:collect="always"
       xlink:href="#linearGradient3188"
       id="linearGradient3194"
       x1="367.15176"
       y1="392.52008"
       x2="340"
       y2="312.52008"
       gradientUnits="userSpaceOnUse"
       gradientTransform="matrix(0.1711896,0,0,0.1765739,-41.162592,-52.137742)" />
    <radialGradient
       inkscape:collect="always"
       xlink:href="#linearGradient3202"
       id="radialGradient3224"
       gradientUnits="userSpaceOnUse"
       gradientTransform="matrix(1.0623174,0.8207158,-0.8597359,1.112824,288.24612,-330.32378)"
       cx="357.84653"
       cy="359.00143"
       fx="357.84653"
       fy="359.00143"
       r="75.003822" />
    <radialGradient
       inkscape:collect="always"
       xlink:href="#linearGradient3202"
       id="radialGradient3300"
       gradientUnits="userSpaceOnUse"
       gradientTransform="matrix(1.0623174,0.8207158,-0.8597359,1.112824,288.24612,-330.32378)"
       cx="357.84653"
       cy="359.00143"
       fx="357.84653"
       fy="359.00143"
       r="75.003822" />
    <radialGradient
       inkscape:collect="always"
       xlink:href="#linearGradient3202"
       id="radialGradient3955"
       gradientUnits="userSpaceOnUse"
       gradientTransform="matrix(0.1384733,0.1092362,-0.1120668,0.1481154,17.97195,-81.512072)"
       cx="357.84653"
       cy="359.00143"
       fx="357.84653"
       fy="359.00143"
       r="75.003822" />
    <filter
       inkscape:collect="always"
       id="filter3185"
       x="-0.13007141"
       width="1.2601428"
       y="-0.11137616"
       height="1.2227523">
      <feGaussianBlur
         inkscape:collect="always"
         stdDeviation="0.96861897"
         id="feGaussianBlur3187" />
    </filter>
    <linearGradient
       inkscape:collect="always"
       xlink:href="#linearGradient3161"
       id="linearGradient3199"
       x1="24"
       y1="2"
       x2="24"
       y2="46"
       gradientUnits="userSpaceOnUse" />
    <linearGradient
       inkscape:collect="always"
       xlink:href="#linearGradient3161"
       id="linearGradient3206"
       gradientUnits="userSpaceOnUse"
       x1="24"
       y1="2"
       x2="24"
       y2="46" />
    <linearGradient
       inkscape:collect="always"
       xlink:href="#linearGradient3188"
       id="linearGradient3209"
       gradientUnits="userSpaceOnUse"
       x1="24"
       y1="16"
       x2="24"
       y2="3" />
  </defs>
  <sodipodi:namedview
     id="base"
     pagecolor="#ffffff"
     bordercolor="#666666"
     borderopacity="1.0"
     inkscape:pageopacity="0.0"
     inkscape:pageshadow="2"
     inkscape:zoom="17.416667"
     inkscape:cx="24"
     inkscape:cy="24.052249"
     inkscape:document-units="px"
     inkscape:current-layer="layer2"
     showgrid="true"
     inkscape:window-width="1680"
     inkscape:window-height="1024"
     inkscape:window-x="0"
     inkscape:window-y="0"
     gridtolerance="10"
     inkscape:snap-bbox="true"
     objecttolerance="10"
     inkscape:bbox-paths="false"
     inkscape:bbox-nodes="true">
    <inkscape:grid
       type="xygrid"
       id="grid2406"
       visible="true"
       enabled="true"
       empspacing="4" />
  </sodipodi:namedview>
  <metadata
     id="metadata7">
    <rdf:RDF>
      <cc:Work
         rdf:about="">
        <dc:format>image/svg+xml</dc:format>
        <dc:type
           rdf:resource="http://purl.org/dc/dcmitype/StillImage" />
      </cc:Work>
    </rdf:RDF>
  </metadata>
  <g
     inkscape:label="Fond"
     inkscape:groupmode="layer"
     id="layer1"
     sodipodi:insensitive="true">
    <rect
       style="opacity:1;fill:#ff7e00;fill-opacity:1;stroke:none;stroke-width:0.2;stroke-miterlimit:4.0999999;stroke-dasharray:none;stroke-opacity:1"
       id="rect3189"
       width="48"
       height="48"
       x="0"
       y="0"
       ry="8" />
    <rect
       style="opacity:1;fill:url(#linearGradient3199);fill-opacity:1;stroke:none;stroke-width:0.2;stroke-miterlimit:4.0999999;stroke-dasharray:none;stroke-opacity:1"
       id="rect3191"
       width="44"
       height="44"
       x="2"
       y="2"
       ry="7.3333335" />
  </g>
  <g
     inkscape:groupmode="layer"
     id="layer5"
     inkscape:label="RSS"
     style="display:inline"
     sodipodi:insensitive="true">
    <path
       id="path2410"
       style="opacity:1;fill:#ffffff;fill-opacity:1;stroke:#000000;stroke-width:0.2;stroke-miterlimit:4.0999999;stroke-dasharray:none;stroke-opacity:1"
       d="M 8,8 L 8,12.571429 C 23.140571,12.571429 35.428571,24.859427 35.428571,40 L 40,40 C 40,22.336 25.664,8 8,8 z M 17.142848,35.428576 C 17.142848,37.952002 15.09485,40 12.571424,40 C 10.047998,40 8,37.952002 8,35.428576 C 8,32.90515 10.047998,30.857152 12.571424,30.857152 C 15.09485,30.857152 17.142848,32.90515 17.142848,35.428576 z M 8,17.142857 L 8,21.714286 C 18.093715,21.714286 26.285714,29.906286 26.285714,40 L 30.857143,40 C 30.857143,27.382857 20.617143,17.142857 8,17.142857 z" />
  </g>
  <g
     inkscape:groupmode="layer"
     id="layer3"
     inkscape:label="Polaroid"
     style="display:inline"
     sodipodi:insensitive="true">
    <g
       id="g3211">
      <rect
         y="10.01381"
         x="70.013817"
         height="20.872379"
         width="17.872379"
         id="rect2409"
         style="opacity:1;fill:#000000;fill-opacity:1;stroke:none;stroke-width:0.22762027;stroke-miterlimit:4.0999999;stroke-dasharray:none;stroke-opacity:1;display:inline;filter:url(#filter3185)" />
      <rect
         y="10.01381"
         x="70.013817"
         height="20.872379"
         width="17.872379"
         id="rect3209"
         style="opacity:1;fill:#ffffff;fill-opacity:1;stroke:#979797;stroke-width:0.22762027;stroke-miterlimit:4.0999999;stroke-dasharray:none;stroke-opacity:1" />
      <rect
         y="12"
         x="72"
         height="14"
         width="14"
         id="rect3207"
         style="opacity:1;fill:#2d2d2d;fill-opacity:1;stroke:none;stroke-width:0.2;stroke-miterlimit:4.0999999;stroke-dasharray:none;stroke-opacity:1" />
    </g>
    <use
       x="0"
       y="0"
       xlink:href="#g3211"
       id="use3215"
       transform="matrix(0.8889018,0.6678558,-0.6678558,0.8889018,-26.560953,-53.184335)"
       width="48"
       height="48" />
    <use
       x="0"
       y="0"
       xlink:href="#g3211"
       id="use3217"
       transform="matrix(1.106178,0.1120184,-0.1120184,1.106178,-59.400795,-13.625118)"
       width="48"
       height="48" />
  </g>
  <g
     inkscape:groupmode="layer"
     id="layer2"
     inkscape:label="Lumière">
    <path
       style="opacity:1;fill:url(#linearGradient3209);fill-opacity:1;stroke:none;stroke-width:0.20000000000000001;stroke-miterlimit:4.09999990000000030;stroke-dasharray:none;stroke-opacity:1"
       d="M 9.34375 2 C 5.2810832 2 2 5.2810828 2 9.34375 L 2 19.71875 C 2.3112114 19.856047 2.6220335 19.99959 2.9375 20.125 C 3.5595884 20.372294 4.1739463 20.614208 4.8125 20.8125 C 5.4510383 21.010776 6.0975486 21.16631 6.75 21.3125 C 7.4024666 21.458688 8.0549381 21.565204 8.71875 21.65625 C 9.3825773 21.747278 10.077365 21.810955 10.75 21.84375 C 11.422636 21.876547 12.102342 21.903504 12.78125 21.875 C 13.460172 21.846509 14.129875 21.780363 14.8125 21.6875 C 15.49514 21.594636 16.191193 21.472812 16.875 21.3125 C 17.558808 21.152204 18.223799 20.949565 18.90625 20.71875 C 19.588701 20.487933 20.258971 20.210639 20.9375 19.90625 C 21.610452 19.604366 22.311455 19.36115 23 19.125 C 23.688537 18.888857 24.390657 18.670146 25.09375 18.5 C 25.796825 18.329855 26.502184 18.19765 27.21875 18.09375 C 27.935301 17.989864 28.646033 17.912394 29.375 17.875 C 30.10398 17.837618 30.853438 17.845632 31.59375 17.875 C 32.334059 17.904371 33.061899 17.96612 33.8125 18.0625 C 34.563083 18.158875 35.333934 18.273853 36.09375 18.4375 C 36.853553 18.601144 37.607053 18.800093 38.375 19.03125 C 39.142964 19.262402 39.912465 19.544824 40.6875 19.84375 C 41.462541 20.142677 42.250191 20.47679 43.03125 20.84375 C 43.812308 21.210693 44.588978 21.596033 45.375 22.03125 C 45.582489 22.146135 45.792764 22.282429 46 22.40625 L 46 9.34375 C 46 5.2810832 42.718915 2 38.65625 2 L 9.34375 2 z "
       id="rect3201" />
  </g>
</svg>
